<svg xmlns="http://www.w3.org/2000/svg" xmlns:xlink="http://www.w3.org/1999/xlink" viewBox="0 0 800 800">
  <defs>
    
    <linearGradient id="bgGrad" x1="0" y1="0" x2="1" y2="1">
      <stop offset="0%" stop-color="#0a0a1a" />
      <stop offset="50%" stop-color="#1a0a2e" />
      <stop offset="100%" stop-color="#0a1a2e" />
    </linearGradient>
    <radialGradient id="centerGlow" cx="50%" cy="50%" r="35%">
      <stop offset="0%" stop-color="#FFD700" stop-opacity="0.6" />
      <stop offset="40%" stop-color="#FF6B00" stop-opacity="0.2" />
      <stop offset="100%" stop-color="#FF0000" stop-opacity="0" />
    </radialGradient>
    <linearGradient id="goldSheen" x1="0%" y1="0%" x2="100%" y2="100%">
      <stop offset="0%" stop-color="#BF953F" />
      <stop offset="25%" stop-color="#FCF6BA" />
      <stop offset="50%" stop-color="#B38728" />
      <stop offset="75%" stop-color="#FBF5B7" />
      <stop offset="100%" stop-color="#AA771C" />
    </linearGradient>
    <radialGradient id="gemGrad" cx="35%" cy="30%" r="65%">
      <stop offset="0%" stop-color="#FFFFFF" stop-opacity="0.9" />
      <stop offset="15%" stop-color="#88DDFF" stop-opacity="0.7" />
      <stop offset="50%" stop-color="#2244AA" stop-opacity="0.8" />
      <stop offset="100%" stop-color="#000033" stop-opacity="0.95" />
    </radialGradient>
    <linearGradient id="prismaticGrad" x1="0%" y1="0%" x2="100%" y2="0%" gradientUnits="userSpaceOnUse">
      <stop offset="0%" stop-color="#FF0000" />
      <stop offset="16.6%" stop-color="#FF8800" />
      <stop offset="33.3%" stop-color="#FFFF00" />
      <stop offset="50%" stop-color="#00FF00" />
      <stop offset="66.6%" stop-color="#0088FF" />
      <stop offset="83.3%" stop-color="#4400FF" />
      <stop offset="100%" stop-color="#FF00FF" />
    </linearGradient>
    <linearGradient id="steelGrad" x1="0%" y1="0%" x2="0%" y2="100%">
      <stop offset="0%" stop-color="#E8E8E8" />
      <stop offset="30%" stop-color="#8899AA" />
      <stop offset="60%" stop-color="#556677" />
      <stop offset="100%" stop-color="#334455" />
    </linearGradient>

    <filter id="fractalNoise" x="0%" y="0%" width="100%" height="100%">
      <feTurbulence type="fractalNoise" baseFrequency="0.04 0.08" numOctaves="6" seed="3" stitchTiles="stitch" result="noise"/>
      <feComponentTransfer in="noise" result="adjustedNoise">
        <feFuncR type="linear" slope="1.5" intercept="-0.3"/>
        <feFuncG type="linear" slope="1.5" intercept="-0.3"/>
        <feFuncB type="linear" slope="1.5" intercept="-0.3"/>
        <feFuncA type="linear" slope="2" intercept="-0.5"/>
      </feComponentTransfer>
      <feComposite in="adjustedNoise" in2="SourceGraphic" operator="in" />
    </filter>

    <filter id="emboss" x="-5%" y="-5%" width="110%" height="110%">
      <feConvolveMatrix order="3" kernelMatrix="-2 -1 0 -1 1 1 0 1 2" preserveAlpha="true" result="embossed"/>
      <feComposite in="embossed" in2="SourceGraphic" operator="arithmetic" k1="1" k2="0.5" k3="0.5" k4="0"/>
    </filter>

    <filter id="innerShadow" x="-10%" y="-10%" width="120%" height="120%">
      <feComponentTransfer in="SourceAlpha" result="invert">
        <feFuncA type="table" tableValues="1 0"/>
      </feComponentTransfer>
      <feGaussianBlur in="invert" stdDeviation="4" result="blurred"/>
      <feOffset dx="2" dy="3" result="offsetBlur"/>
      <feFlood flood-color="#000000" flood-opacity="0.7" result="color"/>
      <feComposite in="color" in2="offsetBlur" operator="in" result="shadow"/>
      <feComposite in="shadow" in2="SourceAlpha" operator="in" result="clippedShadow"/>
      <feMerge>
        <feMergeNode in="SourceGraphic"/>
        <feMergeNode in="clippedShadow"/>
      </feMerge>
    </filter>

    <filter id="chromatic" x="-5%" y="-5%" width="110%" height="110%">
      <feOffset in="SourceGraphic" dx="2" dy="0" result="red"/>
      <feOffset in="SourceGraphic" dx="-2" dy="0" result="blue"/>
      <feColorMatrix in="red" type="matrix" result="redOnly"
        values="1 0 0 0 0  0 0 0 0 0  0 0 0 0 0  0 0 0 1 0"/>
      <feColorMatrix in="blue" type="matrix" result="blueOnly"
        values="0 0 0 0 0  0 0 0 0 0  0 0 1 0 0  0 0 0 1 0"/>
      <feColorMatrix in="SourceGraphic" type="matrix" result="greenOnly"
        values="0 0 0 0 0  0 1 0 0 0  0 0 0 0 0  0 0 0 1 0"/>
      <feBlend in="redOnly" in2="greenOnly" mode="screen" result="rg"/>
      <feBlend in="rg" in2="blueOnly" mode="screen"/>
    </filter>

    <filter id="neonGlow" x="-30%" y="-30%" width="160%" height="160%">
      <feGaussianBlur in="SourceGraphic" stdDeviation="6" result="blur1"/>
      <feGaussianBlur in="SourceGraphic" stdDeviation="2" result="blur2"/>
      <feColorMatrix in="blur1" type="matrix" result="colorBlur"
        values="0 0 0 0 0.3  0 0 0 0 0.8  0 0 0 0 1  0 0 0 1.5 0"/>
      <feMerge>
        <feMergeNode in="colorBlur"/>
        <feMergeNode in="blur2"/>
        <feMergeNode in="SourceGraphic"/>
      </feMerge>
    </filter>

    <filter id="metallic" x="-5%" y="-5%" width="110%" height="110%">
      <feTurbulence type="fractalNoise" baseFrequency="0.5 0.1" numOctaves="2" seed="5" result="metalNoise"/>
      <feDiffuseLighting in="metalNoise" lighting-color="#FFFFFF" surfaceScale="2" result="light">
        <feDistantLight azimuth="225" elevation="45"/>
      </feDiffuseLighting>
      <feComposite in="light" in2="SourceGraphic" operator="in" result="lit"/>
      <feBlend in="lit" in2="SourceGraphic" mode="multiply"/>
    </filter>

    <pattern id="hexPattern" width="30" height="52" patternUnits="userSpaceOnUse" patternTransform="rotate(15)">
      <polygon points="15,0 30,8.66 30,25.98 15,34.64 0,25.98 0,8.66" fill="none" stroke="#4488AA" stroke-width="0.5" opacity="0.3"/>
      <polygon points="15,17.32 30,25.98 30,43.3 15,51.96 0,43.3 0,25.98" fill="none" stroke="#4488AA" stroke-width="0.5" opacity="0.3"/>
    </pattern>

    <pattern id="dotMatrix" width="12" height="12" patternUnits="userSpaceOnUse">
      <circle cx="3" cy="3" r="1" fill="#FFFFFF" opacity="0.08"/>
      <circle cx="9" cy="9" r="0.7" fill="#FFFFFF" opacity="0.05"/>
    </pattern>

    <pattern id="crossHatch" width="10" height="10" patternUnits="userSpaceOnUse" patternTransform="rotate(45)">
      <line x1="0" y1="0" x2="0" y2="10" stroke="#FFFFFF" stroke-width="0.3" opacity="0.06"/>
      <line x1="0" y1="0" x2="10" y2="0" stroke="#FFFFFF" stroke-width="0.3" opacity="0.06"/>
    </pattern>

    <clipPath id="starClip">
      <path d="M400,200 L430,310 L540,310 L450,370 L480,480 L400,410 L320,480 L350,370 L260,310 L370,310Z"/>
    </clipPath>
    <clipPath id="circularClip">
      <circle cx="400" cy="400" r="350"/>
    </clipPath>
    <clipPath id="mandalaClip">
      <path d="M400,50 L450,200 L600,200 L480,300 L520,450 L400,360 L280,450 L320,300 L200,200 L350,200Z"/>
      <circle cx="400" cy="400" r="180"/>
    </clipPath>

    <mask id="fadeMask">
      <radialGradient id="fadeMaskGrad" cx="50%" cy="50%" r="50%">
        <stop offset="0%" stop-color="white"/>
        <stop offset="70%" stop-color="white" stop-opacity="0.8"/>
        <stop offset="100%" stop-color="black"/>
      </radialGradient>
      <rect width="800" height="800" fill="url(#fadeMaskGrad)"/>
    </mask>
    <mask id="stripeMask">
      <pattern id="stripePat" width="8" height="8" patternUnits="userSpaceOnUse" patternTransform="rotate(30)">
        <rect width="4" height="8" fill="white"/>
      </pattern>
      <rect width="800" height="800" fill="url(#stripePat)"/>
    </mask>

    <symbol id="petal" viewBox="0 0 40 100">
      <path d="M20,0 Q35,25 35,50 Q35,80 20,100 Q5,80 5,50 Q5,25 20,0Z" fill="currentColor" opacity="0.7"/>
      <path d="M20,10 Q30,30 28,55 Q25,75 20,90" stroke="white" stroke-width="0.5" fill="none" opacity="0.3"/>
    </symbol>

    <symbol id="flowerUnit" viewBox="0 0 120 120">
      <use href="#petal" x="40" y="0" width="40" height="60" color="#FF6B9D"/>
      <use href="#petal" x="40" y="0" width="40" height="60" color="#FF9D6B" transform="rotate(60,60,60)"/>
      <use href="#petal" x="40" y="0" width="40" height="60" color="#FFD700" transform="rotate(120,60,60)"/>
      <use href="#petal" x="40" y="0" width="40" height="60" color="#6BFF9D" transform="rotate(180,60,60)"/>
      <use href="#petal" x="40" y="0" width="40" height="60" color="#6B9DFF" transform="rotate(240,60,60)"/>
      <use href="#petal" x="40" y="0" width="40" height="60" color="#9D6BFF" transform="rotate(300,60,60)"/>
      <circle cx="60" cy="60" r="8" fill="url(#gemGrad)" stroke="url(#goldSheen)" stroke-width="1.5"/>
    </symbol>

    <symbol id="gearTooth" viewBox="0 0 20 30">
      <path d="M5,0 L15,0 L18,10 L15,20 L5,20 L2,10Z" fill="currentColor"/>
    </symbol>

    <symbol id="gear" viewBox="0 0 100 100">
      <circle cx="50" cy="50" r="30" fill="currentColor" opacity="0.8"/>
      <circle cx="50" cy="50" r="15" fill="#0a0a1a"/>
      <circle cx="50" cy="50" r="12" fill="none" stroke="currentColor" stroke-width="1" opacity="0.5"/>
      <use href="#gearTooth" x="40" y="5" width="20" height="15" color="currentColor" transform="rotate(0,50,50)"/>
      <use href="#gearTooth" x="40" y="5" width="20" height="15" color="currentColor" transform="rotate(30,50,50)"/>
      <use href="#gearTooth" x="40" y="5" width="20" height="15" color="currentColor" transform="rotate(60,50,50)"/>
      <use href="#gearTooth" x="40" y="5" width="20" height="15" color="currentColor" transform="rotate(90,50,50)"/>
      <use href="#gearTooth" x="40" y="5" width="20" height="15" color="currentColor" transform="rotate(120,50,50)"/>
      <use href="#gearTooth" x="40" y="5" width="20" height="15" color="currentColor" transform="rotate(150,50,50)"/>
      <use href="#gearTooth" x="40" y="5" width="20" height="15" color="currentColor" transform="rotate(180,50,50)"/>
      <use href="#gearTooth" x="40" y="5" width="20" height="15" color="currentColor" transform="rotate(210,50,50)"/>
      <use href="#gearTooth" x="40" y="5" width="20" height="15" color="currentColor" transform="rotate(240,50,50)"/>
      <use href="#gearTooth" x="40" y="5" width="20" height="15" color="currentColor" transform="rotate(270,50,50)"/>
      <use href="#gearTooth" x="40" y="5" width="20" height="15" color="currentColor" transform="rotate(300,50,50)"/>
      <use href="#gearTooth" x="40" y="5" width="20" height="15" color="currentColor" transform="rotate(330,50,50)"/>
    </symbol>

    <path id="textCircle1" d="M400,400 m-250,0 a250,250 0 1,1 500,0 a250,250 0 1,1 -500,0" fill="none"/>
    <path id="textCircle2" d="M400,400 m-180,0 a180,180 0 1,0 360,0 a180,180 0 1,0 -360,0" fill="none"/>
    <path id="wavyPath" d="M100,700 Q200,660 300,700 Q400,740 500,700 Q600,660 700,700" fill="none"/>
  </defs>

  <rect width="800" height="800" fill="url(#bgGrad)"/>
  <rect width="800" height="800" fill="url(#dotMatrix)"/>
  <rect width="800" height="800" fill="url(#hexPattern)" clip-path="url(#circularClip)"/>

  <rect width="800" height="800" fill="#8866AA" opacity="0.15" filter="url(#fractalNoise)"/>

  <circle cx="400" cy="400" r="300" fill="url(#centerGlow)" mask="url(#fadeMask)"/>

  <g transform="translate(400,400)" stroke="url(#goldSheen)" fill="none" stroke-width="1.5" opacity="0.4">
    
    <polygon points="0,-320 277,-160 277,160 0,320 -277,160 -277,-160" stroke-dasharray="10,5"/>
    <polygon points="0,-280 242.5,-140 242.5,140 0,280 -242.5,140 -242.5,-140"/>
    <rect x="-240" y="-240" width="480" height="480" rx="20" transform="rotate(22.5)"/>
    <rect x="-200" y="-200" width="400" height="400" rx="15" transform="rotate(45)" stroke-dasharray="6,4"/>
    <polygon points="0,-260 170,-200 260,-50 220,130 80,250 -80,250 -220,130 -260,-50 -170,-200"/>
    <circle cx="0" cy="0" r="300" stroke-dasharray="2,8"/>
    <circle cx="0" cy="0" r="270"/>
    <circle cx="0" cy="0" r="245" stroke-dasharray="15,5,3,5"/>
  </g>

  <g clip-path="url(#mandalaClip)" opacity="0.3">
    <rect width="800" height="800" fill="url(#prismaticGrad)" opacity="0.4"/>
    <rect width="800" height="800" fill="url(#crossHatch)"/>
  </g>

  <g opacity="0.25">
    <use href="#gear" x="100" y="100" width="120" height="120" color="#8899AA" filter="url(#metallic)"/>
    <use href="#gear" x="180" y="170" width="80" height="80" color="#99AABB" filter="url(#metallic)"/>
    <use href="#gear" x="580" y="80" width="140" height="140" color="#7788AA" filter="url(#metallic)"/>
    <use href="#gear" x="620" y="190" width="90" height="90" color="#8899BB" filter="url(#metallic)"/>
    <use href="#gear" x="80" y="580" width="100" height="100" color="#99AABB" filter="url(#metallic)"/>
    <use href="#gear" x="600" y="600" width="130" height="130" color="#7799AA" filter="url(#metallic)"/>
  </g>

  <g transform="translate(400,400)">
    <use href="#flowerUnit" x="-30" y="-310" width="60" height="60"/>
    <use href="#flowerUnit" x="-30" y="-310" width="60" height="60" transform="rotate(45,0,0)"/>
    <use href="#flowerUnit" x="-30" y="-310" width="60" height="60" transform="rotate(90,0,0)"/>
    <use href="#flowerUnit" x="-30" y="-310" width="60" height="60" transform="rotate(135,0,0)"/>
    <use href="#flowerUnit" x="-30" y="-310" width="60" height="60" transform="rotate(180,0,0)"/>
    <use href="#flowerUnit" x="-30" y="-310" width="60" height="60" transform="rotate(225,0,0)"/>
    <use href="#flowerUnit" x="-30" y="-310" width="60" height="60" transform="rotate(270,0,0)"/>
    <use href="#flowerUnit" x="-30" y="-310" width="60" height="60" transform="rotate(315,0,0)"/>
  </g>

  <use href="#flowerUnit" x="330" y="330" width="140" height="140" filter="url(#innerShadow)"/>

  <g clip-path="url(#starClip)" filter="url(#chromatic)" opacity="0.5">
    <circle cx="400" cy="350" r="120" fill="url(#prismaticGrad)"/>
    <rect x="300" y="250" width="200" height="200" fill="url(#gemGrad)" opacity="0.6"/>
  </g>

  <g filter="url(#neonGlow)" opacity="0.7">
    
    <polygon points="400,180 480,320 320,320" fill="none" stroke="#00DDFF" stroke-width="2"/>
    <polygon points="400,520 320,380 480,380" fill="none" stroke="#FF00AA" stroke-width="2"/>
    
    <polygon points="400,220 480,265 480,355 400,400 320,355 320,265" fill="none" stroke="#00FF88" stroke-width="1.5" opacity="0.8"/>
    <polygon points="400,300 440,325 440,375 400,400 360,375 360,325" fill="none" stroke="#FFAA00" stroke-width="1" opacity="0.6"/>
  </g>

  <g mask="url(#stripeMask)" opacity="0.35">
    <circle cx="400" cy="400" r="220" fill="none" stroke="url(#prismaticGrad)" stroke-width="30"/>
  </g>

  <text font-family="serif" font-size="14" fill="url(#goldSheen)" filter="url(#emboss)" opacity="0.6">
    <textPath href="#textCircle1" startOffset="0%">
      ★ GEOMETRIC PATTERN COMPLEXITY TEST ★ SVG ADVANCED FEATURES ★ FILTERS MASKS CLIPS GRADIENTS ★ CROSS-PLATFORM RENDERING CHALLENGE ★
    </textPath>
  </text>
  <text font-family="monospace" font-size="11" fill="#88CCFF" opacity="0.4">
    <textPath href="#textCircle2" startOffset="0%">
      ◆ feConvolveMatrix ◆ feComponentTransfer ◆ feComposite ◆ feDiffuseLighting ◆ clipPath ◆ mask ◆ pattern ◆ symbol ◆ use ◆
    </textPath>
  </text>

  <g style="mix-blend-mode: overlay;" opacity="0.2">
    <circle cx="300" cy="300" r="200" fill="#FF0066"/>
    <circle cx="500" cy="300" r="200" fill="#0066FF"/>
    <circle cx="400" cy="500" r="200" fill="#00FF66"/>
  </g>
  <g style="mix-blend-mode: color-dodge;" opacity="0.1">
    <rect x="200" y="200" width="400" height="400" rx="50" fill="url(#prismaticGrad)"/>
  </g>

  <g transform="translate(400,400) scale(0.6)" fill="none" stroke="#AADDFF" stroke-width="0.6" opacity="0.2">
    
    <polygon points="0,-300 259.8,150 -259.8,150"/>
    
    <path d="M0,-300 L43.3,-250 L86.6,-300 M86.6,-300 L130,-250 L173.2,-300"/>
    <path d="M173.2,-300 L203.9,-237.5 L234.6,-175"/>
    <path d="M259.8,150 L216.5,100 L173.2,150"/>
    <path d="M-259.8,150 L-216.5,100 L-173.2,150"/>
    
    <path d="M0,-300 L-43.3,-250 L-86.6,-300"/>
    <path d="M-86.6,-300 L-130,-250 L-173.2,-300"/>
    <path d="M259.8,150 L259.8,100 L259.8,50"/>
    <path d="M-259.8,150 L-259.8,100 L-259.8,50"/>
    
    <polygon points="0,-150 129.9,75 -129.9,75" stroke-dasharray="3,3"/>
    <polygon points="0,150 -129.9,-75 129.9,-75" stroke-dasharray="3,3"/>
    <polygon points="0,-100 86.6,50 -86.6,50" stroke-dasharray="2,4"/>
    <polygon points="0,100 -86.6,-50 86.6,-50" stroke-dasharray="2,4"/>
    <polygon points="0,-50 43.3,25 -43.3,25" stroke-dasharray="1,3"/>
  </g>

  <g opacity="0.5">
    <circle cx="150" cy="250" r="2" fill="#FF6B9D"/><circle cx="650" cy="180" r="1.5" fill="#6BFF9D"/>
    <circle cx="300" cy="120" r="2.5" fill="#FFD700"/><circle cx="520" cy="680" r="1.8" fill="#9D6BFF"/>
    <circle cx="180" cy="620" r="2" fill="#FF9D6B"/><circle cx="700" cy="450" r="1.3" fill="#6B9DFF"/>
    <circle cx="450" cy="150" r="1.5" fill="#FF6B9D"/><circle cx="250" cy="550" r="2.2" fill="#6BFF9D"/>
    <circle cx="600" cy="350" r="1" fill="#FFD700"/><circle cx="350" cy="650" r="1.8" fill="#9D6BFF"/>
    <circle cx="130" cy="400" r="2.3" fill="#00DDFF"/><circle cx="670" cy="550" r="1.6" fill="#FF00AA"/>
    <circle cx="500" cy="230" r="1.2" fill="#00FF88"/><circle cx="220" cy="350" r="2" fill="#FFAA00"/>
    <rect x="540" y="290" width="3" height="3" fill="#FF6B9D" transform="rotate(45,541,291)"/>
    <rect x="280" y="470" width="4" height="4" fill="#6BFF9D" transform="rotate(30,282,472)"/>
    <rect x="620" y="420" width="2.5" height="2.5" fill="#FFD700" transform="rotate(60,621,421)"/>
    <rect x="160" y="500" width="3" height="3" fill="#9D6BFF" transform="rotate(15,161,501)"/>
    <polygon points="720,300 723,306 729,306 724,310 726,316 720,312 714,316 716,310 711,306 717,306" fill="#FFFFFF" opacity="0.6"/>
    <polygon points="90,180 92,184 96,184 93,187 94,191 90,188 86,191 87,187 84,184 88,184" fill="#FFD700" opacity="0.7"/>
    <polygon points="380,80 382,84 386,84 383,87 384,91 380,88 376,91 377,87 374,84 378,84" fill="#88DDFF" opacity="0.6"/>
  </g>

  <text font-family="sans-serif" font-size="16" fill="url(#goldSheen)" opacity="0.3">
    <textPath href="#wavyPath" startOffset="5%">
      ~ Complexity is the price of power ~
    </textPath>
  </text>

  <g fill="none" stroke="url(#goldSheen)" opacity="0.3">
    
    <path d="M20,60 L20,20 L60,20" stroke-width="2"/>
    <path d="M20,25 L25,25 L25,20" stroke-width="1" opacity="0.5"/>
    <circle cx="20" cy="20" r="3" fill="url(#goldSheen)" opacity="0.5"/>

    <path d="M740,20 L780,20 L780,60" stroke-width="2"/>
    <path d="M775,20 L775,25 L780,25" stroke-width="1" opacity="0.5"/>
    <circle cx="780" cy="20" r="3" fill="url(#goldSheen)" opacity="0.5"/>

    <path d="M780,740 L780,780 L740,780" stroke-width="2"/>
    <path d="M780,775 L775,775 L775,780" stroke-width="1" opacity="0.5"/>
    <circle cx="780" cy="780" r="3" fill="url(#goldSheen)" opacity="0.5"/>

    <path d="M60,780 L20,780 L20,740" stroke-width="2"/>
    <path d="M25,780 L25,775 L20,775" stroke-width="1" opacity="0.5"/>
    <circle cx="20" cy="780" r="3" fill="url(#goldSheen)" opacity="0.5"/>

    <line x1="80" y1="20" x2="720" y2="20" stroke-dasharray="12,4,2,4" stroke-width="1"/>
    <line x1="80" y1="780" x2="720" y2="780" stroke-dasharray="12,4,2,4" stroke-width="1"/>
    <line x1="20" y1="80" x2="20" y2="720" stroke-dasharray="12,4,2,4" stroke-width="1"/>
    <line x1="780" y1="80" x2="780" y2="720" stroke-dasharray="12,4,2,4" stroke-width="1"/>
  </g>

  <radialGradient id="vignette" cx="50%" cy="50%" r="55%">
    <stop offset="0%" stop-color="#000000" stop-opacity="0"/>
    <stop offset="75%" stop-color="#000000" stop-opacity="0"/>
    <stop offset="100%" stop-color="#000000" stop-opacity="0.7"/>
  </radialGradient>
  <rect width="800" height="800" fill="url(#vignette)"/>
</svg>
