<svg xmlns="http://www.w3.org/2000/svg" viewBox="0 0 800 800">
  <defs>
    
    <linearGradient id="skyGrad" x1="0%" y1="0%" x2="0%" y2="100%">
      <stop offset="0%" stop-color="#0B0E2D" />
      <stop offset="25%" stop-color="#1B1F4B" />
      <stop offset="50%" stop-color="#2D1B69" />
      <stop offset="75%" stop-color="#1A0A3E" />
      <stop offset="100%" stop-color="#0D0221" />
    </linearGradient>
    <radialGradient id="nebulaGrad1" cx="30%" cy="40%" r="45%" fx="25%" fy="35%">
      <stop offset="0%" stop-color="#FF6B9D" stop-opacity="0.4" />
      <stop offset="40%" stop-color="#C44BDB" stop-opacity="0.2" />
      <stop offset="100%" stop-color="#2D1B69" stop-opacity="0" />
    </radialGradient>
    <radialGradient id="nebulaGrad2" cx="70%" cy="30%" r="40%" fx="65%" fy="25%">
      <stop offset="0%" stop-color="#4FACFE" stop-opacity="0.35" />
      <stop offset="50%" stop-color="#00F2FE" stop-opacity="0.15" />
      <stop offset="100%" stop-color="#1B1F4B" stop-opacity="0" />
    </radialGradient>
    <radialGradient id="nebulaGrad3" cx="50%" cy="65%" r="50%" fx="55%" fy="60%">
      <stop offset="0%" stop-color="#F5576C" stop-opacity="0.3" />
      <stop offset="35%" stop-color="#FF9A76" stop-opacity="0.15" />
      <stop offset="100%" stop-color="#0D0221" stop-opacity="0" />
    </radialGradient>
    <radialGradient id="sunGrad" cx="50%" cy="50%" r="50%">
      <stop offset="0%" stop-color="#FFE066" stop-opacity="1" />
      <stop offset="30%" stop-color="#FFAA33" stop-opacity="0.9" />
      <stop offset="60%" stop-color="#FF6633" stop-opacity="0.5" />
      <stop offset="100%" stop-color="#FF3366" stop-opacity="0" />
    </radialGradient>
    <radialGradient id="planetGrad" cx="40%" cy="35%" r="55%">
      <stop offset="0%" stop-color="#7B68EE" />
      <stop offset="50%" stop-color="#4B0082" />
      <stop offset="100%" stop-color="#1A0033" />
    </radialGradient>
    <linearGradient id="ringGrad" x1="0%" y1="0%" x2="100%" y2="0%">
      <stop offset="0%" stop-color="#FFD700" stop-opacity="0" />
      <stop offset="20%" stop-color="#FFD700" stop-opacity="0.6" />
      <stop offset="50%" stop-color="#FFA500" stop-opacity="0.8" />
      <stop offset="80%" stop-color="#FFD700" stop-opacity="0.6" />
      <stop offset="100%" stop-color="#FFD700" stop-opacity="0" />
    </linearGradient>
    <linearGradient id="auroraGrad1" x1="0%" y1="100%" x2="100%" y2="0%">
      <stop offset="0%" stop-color="#00FF88" stop-opacity="0" />
      <stop offset="30%" stop-color="#00FF88" stop-opacity="0.25" />
      <stop offset="50%" stop-color="#00DDFF" stop-opacity="0.35" />
      <stop offset="70%" stop-color="#AA55FF" stop-opacity="0.2" />
      <stop offset="100%" stop-color="#FF55AA" stop-opacity="0" />
    </linearGradient>
    <linearGradient id="auroraGrad2" x1="100%" y1="100%" x2="0%" y2="0%">
      <stop offset="0%" stop-color="#FF00FF" stop-opacity="0" />
      <stop offset="25%" stop-color="#8855FF" stop-opacity="0.2" />
      <stop offset="50%" stop-color="#5599FF" stop-opacity="0.3" />
      <stop offset="75%" stop-color="#55FFDD" stop-opacity="0.15" />
      <stop offset="100%" stop-color="#00FF99" stop-opacity="0" />
    </linearGradient>
    <linearGradient id="mountainGrad1" x1="0%" y1="0%" x2="0%" y2="100%">
      <stop offset="0%" stop-color="#2A1B5E" />
      <stop offset="100%" stop-color="#0D0221" />
    </linearGradient>
    <linearGradient id="mountainGrad2" x1="0%" y1="0%" x2="0%" y2="100%">
      <stop offset="0%" stop-color="#1F1245" />
      <stop offset="100%" stop-color="#090115" />
    </linearGradient>
    <linearGradient id="waterGrad" x1="0%" y1="0%" x2="0%" y2="100%">
      <stop offset="0%" stop-color="#1A0A3E" stop-opacity="0.8" />
      <stop offset="50%" stop-color="#0D0530" stop-opacity="0.9" />
      <stop offset="100%" stop-color="#050218" />
    </linearGradient>
    <linearGradient id="cometTail" x1="100%" y1="0%" x2="0%" y2="100%">
      <stop offset="0%" stop-color="#FFFFFF" stop-opacity="0.9" />
      <stop offset="40%" stop-color="#AADDFF" stop-opacity="0.4" />
      <stop offset="100%" stop-color="#4488FF" stop-opacity="0" />
    </linearGradient>

    <filter id="glow" x="-50%" y="-50%" width="200%" height="200%">
      <feGaussianBlur in="SourceGraphic" stdDeviation="3" result="blur" />
      <feMerge>
        <feMergeNode in="blur" />
        <feMergeNode in="SourceGraphic" />
      </feMerge>
    </filter>
    <filter id="strongGlow" x="-100%" y="-100%" width="300%" height="300%">
      <feGaussianBlur in="SourceGraphic" stdDeviation="8" result="blur1" />
      <feGaussianBlur in="SourceGraphic" stdDeviation="3" result="blur2" />
      <feMerge>
        <feMergeNode in="blur1" />
        <feMergeNode in="blur2" />
        <feMergeNode in="SourceGraphic" />
      </feMerge>
    </filter>
    <filter id="softBlur" x="-20%" y="-20%" width="140%" height="140%">
      <feGaussianBlur in="SourceGraphic" stdDeviation="12" />
    </filter>
    <filter id="turbulence" x="0" y="0" width="100%" height="100%">
      <feTurbulence type="fractalNoise" baseFrequency="0.015" numOctaves="5" seed="42" result="noise" />
      <feColorMatrix type="saturate" values="0" in="noise" result="grayNoise" />
      <feBlend in="SourceGraphic" in2="grayNoise" mode="soft-light" />
    </filter>
    <filter id="displacement">
      <feTurbulence type="turbulence" baseFrequency="0.02" numOctaves="3" seed="7" result="turb" />
      <feDisplacementMap in="SourceGraphic" in2="turb" scale="15" xChannelSelector="R" yChannelSelector="G" />
    </filter>
    <filter id="shadow" x="-10%" y="-10%" width="120%" height="120%">
      <feDropShadow dx="0" dy="0" stdDeviation="5" flood-color="#000000" flood-opacity="0.5" />
    </filter>

    <pattern id="starField" width="100" height="100" patternUnits="userSpaceOnUse">
      <rect width="100" height="100" fill="none" />
      <circle cx="12" cy="8" r="0.6" fill="#FFFFFF" opacity="0.9" />
      <circle cx="45" cy="15" r="0.4" fill="#FFFFFF" opacity="0.7" />
      <circle cx="78" cy="5" r="0.8" fill="#AACCFF" opacity="0.85" />
      <circle cx="23" cy="32" r="0.5" fill="#FFFFFF" opacity="0.6" />
      <circle cx="67" cy="28" r="0.3" fill="#FFDDAA" opacity="0.75" />
      <circle cx="90" cy="38" r="0.7" fill="#FFFFFF" opacity="0.8" />
      <circle cx="8" cy="55" r="0.4" fill="#FFCCCC" opacity="0.65" />
      <circle cx="35" cy="48" r="0.9" fill="#FFFFFF" opacity="0.9" />
      <circle cx="55" cy="60" r="0.3" fill="#CCDDFF" opacity="0.7" />
      <circle cx="82" cy="52" r="0.6" fill="#FFFFFF" opacity="0.55" />
      <circle cx="15" cy="75" r="0.5" fill="#FFFFFF" opacity="0.8" />
      <circle cx="42" cy="82" r="0.7" fill="#FFEEDD" opacity="0.7" />
      <circle cx="70" cy="72" r="0.4" fill="#FFFFFF" opacity="0.6" />
      <circle cx="95" cy="88" r="0.5" fill="#CCCCFF" opacity="0.85" />
      <circle cx="58" cy="92" r="0.3" fill="#FFFFFF" opacity="0.75" />
      <circle cx="28" cy="95" r="0.6" fill="#FFFFFF" opacity="0.5" />
    </pattern>
    <pattern id="gridPattern" width="40" height="40" patternUnits="userSpaceOnUse">
      <path d="M 40 0 L 0 0 0 40" fill="none" stroke="#4466AA" stroke-width="0.3" opacity="0.15" />
    </pattern>

    <clipPath id="mountainClip">
      <rect x="0" y="500" width="800" height="300" />
    </clipPath>
    <mask id="reflectionMask">
      <linearGradient id="reflMaskGrad" x1="0%" y1="0%" x2="0%" y2="100%">
        <stop offset="0%" stop-color="white" />
        <stop offset="100%" stop-color="black" />
      </linearGradient>
      <rect x="0" y="650" width="800" height="150" fill="url(#reflMaskGrad)" />
    </mask>
    <mask id="auroraMask">
      <linearGradient id="auroraMaskGrad" x1="0%" y1="100%" x2="0%" y2="0%">
        <stop offset="0%" stop-color="white" />
        <stop offset="60%" stop-color="white" stop-opacity="0.5" />
        <stop offset="100%" stop-color="black" />
      </linearGradient>
      <rect x="0" y="100" width="800" height="500" fill="url(#auroraMaskGrad)" />
    </mask>

    <symbol id="detailedStar" viewBox="0 0 20 20">
      <polygon points="10,0 12.4,7 20,7.6 14,12.4 16,20 10,15.8 4,20 6,12.4 0,7.6 7.6,7"
               fill="currentColor" />
    </symbol>
    <symbol id="constellation" viewBox="0 0 200 150">
      <circle cx="20" cy="30" r="2" fill="white" opacity="0.9" />
      <circle cx="60" cy="15" r="1.5" fill="white" opacity="0.85" />
      <circle cx="95" cy="40" r="2.5" fill="white" opacity="0.95" />
      <circle cx="130" cy="20" r="1.8" fill="white" opacity="0.8" />
      <circle cx="160" cy="55" r="2" fill="white" opacity="0.9" />
      <circle cx="180" cy="30" r="1.5" fill="white" opacity="0.75" />
      <circle cx="75" cy="80" r="2.2" fill="white" opacity="0.88" />
      <circle cx="120" cy="100" r="1.8" fill="white" opacity="0.82" />
      <circle cx="45" cy="110" r="2" fill="white" opacity="0.9" />
      <line x1="20" y1="30" x2="60" y2="15" stroke="white" stroke-width="0.4" opacity="0.3" />
      <line x1="60" y1="15" x2="95" y2="40" stroke="white" stroke-width="0.4" opacity="0.3" />
      <line x1="95" y1="40" x2="130" y2="20" stroke="white" stroke-width="0.4" opacity="0.3" />
      <line x1="130" y1="20" x2="160" y2="55" stroke="white" stroke-width="0.4" opacity="0.3" />
      <line x1="160" y1="55" x2="180" y2="30" stroke="white" stroke-width="0.4" opacity="0.3" />
      <line x1="95" y1="40" x2="75" y2="80" stroke="white" stroke-width="0.4" opacity="0.25" />
      <line x1="75" y1="80" x2="120" y2="100" stroke="white" stroke-width="0.4" opacity="0.25" />
      <line x1="75" y1="80" x2="45" y2="110" stroke="white" stroke-width="0.4" opacity="0.25" />
    </symbol>
  </defs>

  <rect width="800" height="800" fill="url(#skyGrad)" />
  <rect width="800" height="800" fill="url(#starField)" />
  <rect width="800" height="800" filter="url(#turbulence)" opacity="0.4" fill="transparent" />

  <g filter="url(#softBlur)">
    <ellipse cx="240" cy="300" rx="350" ry="250" fill="url(#nebulaGrad1)" />
    <ellipse cx="560" cy="220" rx="300" ry="200" fill="url(#nebulaGrad2)" />
    <ellipse cx="400" cy="500" rx="380" ry="280" fill="url(#nebulaGrad3)" />
  </g>

  <g filter="url(#softBlur)" opacity="0.5">
    <path d="M100,200 Q200,100 350,180 Q500,260 400,350 Q300,440 150,350 Q50,280 100,200Z"
          fill="#9B59B6" opacity="0.15" />
    <path d="M450,150 Q550,80 650,160 Q750,240 680,320 Q600,400 500,300 Q400,220 450,150Z"
          fill="#3498DB" opacity="0.12" />
  </g>

  <use href="#constellation" x="80" y="60" width="200" height="150" opacity="0.7" />
  <use href="#constellation" x="450" y="30" width="180" height="130" opacity="0.5" transform="rotate(15, 540, 95)" />

  <g filter="url(#strongGlow)">
    <use href="#detailedStar" x="145" y="88" width="8" height="8" fill="#FFFFFF" opacity="0.95" />
    <use href="#detailedStar" x="320" y="55" width="12" height="12" fill="#FFE4B5" opacity="0.9" />
    <use href="#detailedStar" x="580" y="120" width="10" height="10" fill="#ADD8E6" opacity="0.85" />
    <use href="#detailedStar" x="700" y="70" width="7" height="7" fill="#FFFFFF" opacity="0.9" />
    <use href="#detailedStar" x="50" y="180" width="9" height="9" fill="#FFDAB9" opacity="0.88" />
    <use href="#detailedStar" x="460" y="200" width="6" height="6" fill="#FFFFFF" opacity="0.82" />
    <use href="#detailedStar" x="250" y="250" width="8" height="8" fill="#E6E6FA" opacity="0.78" />
  </g>

  <g transform="rotate(-35, 650, 100)">
    <line x1="650" y1="100" x2="750" y2="100" stroke="url(#cometTail)" stroke-width="3" stroke-linecap="round" />
    <line x1="650" y1="100" x2="780" y2="105" stroke="url(#cometTail)" stroke-width="1.5" opacity="0.5" />
    <line x1="650" y1="100" x2="770" y2="95" stroke="url(#cometTail)" stroke-width="1" opacity="0.3" />
    <circle cx="650" cy="100" r="3" fill="#FFFFFF" filter="url(#glow)" />
  </g>

  <g mask="url(#auroraMask)" opacity="0.6" filter="url(#displacement)">
    <path d="M0,350 C80,280 160,320 240,270 C320,220 400,300 480,250 C560,200 640,280 720,230 L800,210 L800,550 C720,500 640,530 560,480 C480,430 400,510 320,460 C240,410 160,490 80,440 L0,420Z"
          fill="url(#auroraGrad1)" />
    <path d="M0,380 C100,310 180,370 280,300 C380,230 440,350 540,280 C640,210 720,310 800,260 L800,580 C700,530 620,560 520,510 C420,460 340,540 240,490 C140,440 60,510 0,470Z"
          fill="url(#auroraGrad2)" />
    
    <path d="M50,400 Q150,300 250,380 Q350,460 450,340 Q550,220 650,350 Q750,480 800,380"
          stroke="#00FF99" stroke-width="1.5" fill="none" opacity="0.2" />
    <path d="M0,420 Q100,350 200,400 Q300,450 400,370 Q500,290 600,380 Q700,470 800,400"
          stroke="#55AAFF" stroke-width="1" fill="none" opacity="0.15" />
  </g>

  <g transform="translate(400, 320)">
    <circle cx="0" cy="0" r="80" fill="url(#sunGrad)" filter="url(#strongGlow)" opacity="0.3" />
    <circle cx="0" cy="0" r="40" fill="url(#sunGrad)" filter="url(#glow)" opacity="0.5" />
    <circle cx="0" cy="0" r="18" fill="#FFE066" opacity="0.9" filter="url(#glow)" />
    
    <g opacity="0.25" stroke="#FFE066" stroke-width="1" fill="none">
      <line x1="0" y1="-25" x2="0" y2="-55" />
      <line x1="0" y1="25" x2="0" y2="55" />
      <line x1="-25" y1="0" x2="-55" y2="0" />
      <line x1="25" y1="0" x2="55" y2="0" />
      <line x1="-18" y1="-18" x2="-40" y2="-40" />
      <line x1="18" y1="-18" x2="40" y2="-40" />
      <line x1="-18" y1="18" x2="-40" y2="40" />
      <line x1="18" y1="18" x2="40" y2="40" />
    </g>
  </g>

  <g transform="translate(620, 380)">
    
    <circle cx="2" cy="2" r="35" fill="#000000" opacity="0.3" filter="url(#softBlur)" />
    
    <circle cx="0" cy="0" r="32" fill="url(#planetGrad)" filter="url(#shadow)" />
    
    <g clip-path="url(#planetSurfaceClip)" opacity="0.3">
      <clipPath id="planetSurfaceClip"><circle cx="0" cy="0" r="32" /></clipPath>
      <path d="M-35,-15 Q-10,-20 0,-12 Q15,-5 35,-10" stroke="#9966CC" stroke-width="4" fill="none" opacity="0.5" />
      <path d="M-35,-5 Q-15,-2 5,2 Q25,6 35,0" stroke="#7744AA" stroke-width="6" fill="none" opacity="0.4" />
      <path d="M-35,8 Q-10,14 10,10 Q30,6 35,12" stroke="#8855BB" stroke-width="3" fill="none" opacity="0.35" />
      <path d="M-35,20 Q0,26 35,18" stroke="#6633AA" stroke-width="5" fill="none" opacity="0.3" />
    </g>
    
    <ellipse cx="-12" cy="-14" rx="15" ry="10" fill="#FFFFFF" opacity="0.08" transform="rotate(-30)" />
    
    <ellipse cx="0" cy="5" rx="65" ry="12" fill="none" stroke="url(#ringGrad)" stroke-width="5" opacity="0.6"
             transform="rotate(-15)" stroke-dasharray="4,2" />
    <ellipse cx="0" cy="5" rx="58" ry="10" fill="none" stroke="#FFD700" stroke-width="2" opacity="0.3"
             transform="rotate(-15)" />
    <ellipse cx="0" cy="5" rx="72" ry="14" fill="none" stroke="#FFA500" stroke-width="1.5" opacity="0.2"
             transform="rotate(-15)" />
  </g>

  <g opacity="0.4">
    <ellipse cx="155" cy="420" rx="4" ry="3" fill="#8B7D6B" transform="rotate(25,155,420)" />
    <ellipse cx="180" cy="405" rx="2.5" ry="2" fill="#A0926B" transform="rotate(-15,180,405)" />
    <ellipse cx="210" cy="430" rx="3" ry="2.5" fill="#6B5B4B" transform="rotate(40,210,430)" />
    <ellipse cx="240" cy="410" rx="2" ry="1.5" fill="#9B8B7B" transform="rotate(-30,240,410)" />
    <ellipse cx="260" cy="440" rx="3.5" ry="2" fill="#7B6B5B" transform="rotate(55,260,440)" />
    <ellipse cx="285" cy="415" rx="1.8" ry="1.2" fill="#A89880" transform="rotate(10,285,415)" />
    <ellipse cx="310" cy="445" rx="2.8" ry="2" fill="#8B7B6B" transform="rotate(-45,310,445)" />
    <ellipse cx="130" cy="435" rx="2.2" ry="1.8" fill="#9A8A7A" transform="rotate(20,130,435)" />
  </g>

  <path d="M0,600 L30,570 L60,585 L100,540 L130,560 L170,520 L210,545 L250,510 L290,535 
           L340,490 L380,515 L420,480 L460,505 L500,470 L540,500 L580,465 L620,495 
           L660,460 L700,490 L740,470 L780,500 L800,480 L800,800 L0,800Z"
        fill="url(#mountainGrad2)" opacity="0.7" />

  <path d="M0,650 L20,630 L50,640 L80,610 L120,625 L160,590 L200,615 L240,580 L280,605 
           L320,570 L360,595 L400,560 L440,585 L480,555 L520,580 L560,550 L600,575 
           L640,545 L680,570 L720,540 L760,565 L800,545 L800,800 L0,800Z"
        fill="url(#mountainGrad1)" />

  <path d="M0,680 L40,665 L80,675 L120,650 L160,668 L200,640 L250,660 L300,635 
           L350,655 L400,625 L450,648 L500,620 L550,645 L600,618 L650,640 
           L700,615 L750,638 L800,610 L800,800 L0,800Z"
        fill="#1A0A3E" />

  <g opacity="0.15">
    <path d="M170,520 L175,525 L165,525Z" fill="#FFFFFF" />
    <path d="M340,490 L346,497 L334,497Z" fill="#FFFFFF" />
    <path d="M500,470 L507,478 L493,478Z" fill="#FFFFFF" />
    <path d="M660,460 L667,468 L653,468Z" fill="#FFFFFF" />
    <path d="M250,510 L256,517 L244,517Z" fill="#FFFFFF" />
    <path d="M580,465 L586,473 L574,473Z" fill="#FFFFFF" />
  </g>

  <g fill="#0D0520" opacity="0.6">
    <path d="M30,675 L33,660 L36,675Z" />
    <path d="M50,672 L54,655 L58,672Z" />
    <path d="M70,678 L73,665 L76,678Z" />
    <path d="M90,670 L94,652 L98,670Z" />
    <path d="M110,665 L113,650 L116,665Z" />
    <path d="M130,660 L134,642 L138,660Z" />
    <path d="M155,668 L158,653 L161,668Z" />
    <path d="M340,645 L344,628 L348,645Z" />
    <path d="M360,650 L363,636 L366,650Z" />
    <path d="M380,648 L384,630 L388,648Z" />
    <path d="M510,635 L514,618 L518,635Z" />
    <path d="M530,638 L533,624 L536,638Z" />
    <path d="M680,628 L684,610 L688,628Z" />
    <path d="M700,632 L703,618 L706,632Z" />
    <path d="M720,625 L724,608 L728,625Z" />
  </g>

  <path d="M0,680 L40,665 L80,675 L120,650 L160,668 L200,640 L250,660 L300,635 
           L350,655 L400,625 L450,648 L500,620 L550,645 L600,618 L650,640 
           L700,615 L750,638 L800,610 L800,800 L0,800Z"
        fill="url(#waterGrad)" opacity="0.9" />

  <g stroke="#4466AA" fill="none" opacity="0.15" stroke-width="0.8">
    <path d="M50,700 Q100,695 150,700 Q200,705 250,700" />
    <path d="M300,710 Q350,705 400,710 Q450,715 500,710" />
    <path d="M100,730 Q160,725 220,730 Q280,735 340,730" />
    <path d="M400,725 Q450,720 500,725 Q550,730 600,725" />
    <path d="M150,750 Q220,745 290,750 Q360,755 430,750" />
    <path d="M500,745 Q560,740 620,745 Q680,750 740,745" />
    <path d="M50,770 Q130,765 210,770 Q290,775 370,770" />
    <path d="M420,765 Q500,760 580,765 Q660,770 740,765" />
    <path d="M80,790 Q170,785 260,790 Q350,795 440,790" />
    <path d="M480,788 Q550,783 620,788 Q690,793 760,788" />
  </g>

  <g mask="url(#reflectionMask)" opacity="0.2" transform="translate(0, 50) scale(1, -1) translate(0, -1300)">
    <circle cx="400" cy="320" r="18" fill="#FFE066" opacity="0.4" />
    <circle cx="620" cy="380" r="20" fill="#7B68EE" opacity="0.3" />
  </g>

  <rect x="0" y="650" width="800" height="150" fill="url(#gridPattern)" opacity="0.3" />

  <g filter="url(#glow)">
    <circle cx="100" cy="600" r="2" fill="#88FF88" opacity="0.7" />
    <circle cx="250" cy="580" r="1.5" fill="#AAFFAA" opacity="0.5" />
    <circle cx="400" cy="590" r="2.5" fill="#66FF66" opacity="0.6" />
    <circle cx="550" cy="575" r="1.8" fill="#88FF88" opacity="0.55" />
    <circle cx="680" cy="595" r="2" fill="#AAFFAA" opacity="0.65" />
    <circle cx="150" cy="560" r="1.2" fill="#CCFFCC" opacity="0.4" />
    <circle cx="350" cy="545" r="1.8" fill="#88FF88" opacity="0.5" />
    <circle cx="500" cy="555" r="1.5" fill="#66FF66" opacity="0.45" />
    <circle cx="720" cy="565" r="2.2" fill="#AAFFAA" opacity="0.6" />
  </g>

  <g opacity="0.6">
    <line x1="120" y1="80" x2="90" y2="120" stroke="url(#cometTail)" stroke-width="1.5" stroke-linecap="round" />
    <circle cx="120" cy="80" r="1.5" fill="#FFFFFF" />
    
    <line x1="350" y1="40" x2="325" y2="75" stroke="url(#cometTail)" stroke-width="1" stroke-linecap="round" />
    <circle cx="350" cy="40" r="1" fill="#FFFFFF" />
    
    <line x1="550" y1="60" x2="530" y2="90" stroke="url(#cometTail)" stroke-width="1.2" stroke-linecap="round" />
    <circle cx="550" cy="60" r="1.2" fill="#FFFFFF" />

    <line x1="700" y1="150" x2="675" y2="185" stroke="url(#cometTail)" stroke-width="0.8" stroke-linecap="round" />
    <circle cx="700" cy="150" r="0.8" fill="#FFFFFF" />
  </g>

  <g transform="translate(150, 160) rotate(-20)" opacity="0.2" filter="url(#softBlur)">
    <ellipse cx="0" cy="0" rx="60" ry="20" fill="#DDAAFF" opacity="0.3" />
    <path d="M0,0 Q30,-15 50,-5 Q70,5 60,20 Q50,35 20,30 Q-10,25 -20,10 Q-30,-5 -10,-15 Q10,-25 35,-18"
          stroke="#CCBBFF" stroke-width="2" fill="none" opacity="0.4" />
    <path d="M0,0 Q-25,12 -40,5 Q-55,-2 -50,-18 Q-45,-34 -15,-30 Q15,-26 22,-12 Q29,2 15,12 Q1,22 -20,16"
          stroke="#BBAAEE" stroke-width="1.5" fill="none" opacity="0.35" />
    <circle cx="0" cy="0" r="5" fill="#FFFFFF" opacity="0.5" />
  </g>

  <g transform="translate(680, 250)" opacity="0.12" stroke="#88AAFF" fill="none" stroke-width="0.8">
    <circle cx="0" cy="0" r="30" />
    <circle cx="0" cy="0" r="25" stroke-dasharray="3,3" />
    <circle cx="0" cy="0" r="20" />
    <polygon points="0,-30 26,15 -26,15" />
    <polygon points="0,30 -26,-15 26,-15" />
    <line x1="-30" y1="0" x2="30" y2="0" />
    <line x1="0" y1="-30" x2="0" y2="30" />
    <circle cx="0" cy="-30" r="3" fill="#88AAFF" />
    <circle cx="26" cy="15" r="3" fill="#88AAFF" />
    <circle cx="-26" cy="15" r="3" fill="#88AAFF" />
    <circle cx="0" cy="30" r="3" fill="#88AAFF" />
    <circle cx="-26" cy="-15" r="3" fill="#88AAFF" />
    <circle cx="26" cy="-15" r="3" fill="#88AAFF" />
  </g>

  <g transform="translate(100, 350)" opacity="0.06" stroke="#FF88AA" fill="none" stroke-width="0.5">
    <circle cx="0" cy="0" r="40" />
    <circle cx="0" cy="0" r="35" />
    <circle cx="0" cy="0" r="28" />
    <circle cx="0" cy="0" r="20" />
    <circle cx="0" cy="0" r="12" />
    
    <path d="M0,-40 Q12,-20 0,0 Q-12,-20 0,-40Z" />
    <path d="M0,-40 Q12,-20 0,0 Q-12,-20 0,-40Z" transform="rotate(30)" />
    <path d="M0,-40 Q12,-20 0,0 Q-12,-20 0,-40Z" transform="rotate(60)" />
    <path d="M0,-40 Q12,-20 0,0 Q-12,-20 0,-40Z" transform="rotate(90)" />
    <path d="M0,-40 Q12,-20 0,0 Q-12,-20 0,-40Z" transform="rotate(120)" />
    <path d="M0,-40 Q12,-20 0,0 Q-12,-20 0,-40Z" transform="rotate(150)" />
    <path d="M0,-40 Q12,-20 0,0 Q-12,-20 0,-40Z" transform="rotate(180)" />
    <path d="M0,-40 Q12,-20 0,0 Q-12,-20 0,-40Z" transform="rotate(210)" />
    <path d="M0,-40 Q12,-20 0,0 Q-12,-20 0,-40Z" transform="rotate(240)" />
    <path d="M0,-40 Q12,-20 0,0 Q-12,-20 0,-40Z" transform="rotate(270)" />
    <path d="M0,-40 Q12,-20 0,0 Q-12,-20 0,-40Z" transform="rotate(300)" />
    <path d="M0,-40 Q12,-20 0,0 Q-12,-20 0,-40Z" transform="rotate(330)" />
    
    <path d="M0,-20 Q6,-10 0,0 Q-6,-10 0,-20Z" transform="rotate(15)" />
    <path d="M0,-20 Q6,-10 0,0 Q-6,-10 0,-20Z" transform="rotate(45)" />
    <path d="M0,-20 Q6,-10 0,0 Q-6,-10 0,-20Z" transform="rotate(75)" />
    <path d="M0,-20 Q6,-10 0,0 Q-6,-10 0,-20Z" transform="rotate(105)" />
    <path d="M0,-20 Q6,-10 0,0 Q-6,-10 0,-20Z" transform="rotate(135)" />
    <path d="M0,-20 Q6,-10 0,0 Q-6,-10 0,-20Z" transform="rotate(165)" />
    <path d="M0,-20 Q6,-10 0,0 Q-6,-10 0,-20Z" transform="rotate(195)" />
    <path d="M0,-20 Q6,-10 0,0 Q-6,-10 0,-20Z" transform="rotate(225)" />
    <path d="M0,-20 Q6,-10 0,0 Q-6,-10 0,-20Z" transform="rotate(255)" />
    <path d="M0,-20 Q6,-10 0,0 Q-6,-10 0,-20Z" transform="rotate(285)" />
    <path d="M0,-20 Q6,-10 0,0 Q-6,-10 0,-20Z" transform="rotate(315)" />
    <path d="M0,-20 Q6,-10 0,0 Q-6,-10 0,-20Z" transform="rotate(345)" />
  </g>

  <g opacity="0.08" fill="none" stroke="#FFFFFF" stroke-width="0.5">
    
    <path d="M760,200 Q770,210 760,220 Q750,230 760,240 Q770,250 760,260 Q750,270 760,280 Q770,290 760,300 Q750,310 760,320 Q770,330 760,340 Q750,350 760,360 Q770,370 760,380 Q750,390 760,400" />
    <path d="M780,200 Q770,210 780,220 Q790,230 780,240 Q770,250 780,260 Q790,270 780,280 Q770,290 780,300 Q790,310 780,320 Q770,330 780,340 Q790,350 780,360 Q770,370 780,380 Q790,390 780,400" />
    
    <line x1="760" y1="210" x2="780" y2="210" />
    <line x1="760" y1="230" x2="780" y2="230" />
    <line x1="760" y1="250" x2="780" y2="250" />
    <line x1="760" y1="270" x2="780" y2="270" />
    <line x1="760" y1="290" x2="780" y2="290" />
    <line x1="760" y1="310" x2="780" y2="310" />
    <line x1="760" y1="330" x2="780" y2="330" />
    <line x1="760" y1="350" x2="780" y2="350" />
    <line x1="760" y1="370" x2="780" y2="370" />
    <line x1="760" y1="390" x2="780" y2="390" />
  </g>

  <radialGradient id="vignette" cx="50%" cy="50%" r="60%">
    <stop offset="0%" stop-color="#000000" stop-opacity="0" />
    <stop offset="70%" stop-color="#000000" stop-opacity="0" />
    <stop offset="100%" stop-color="#000000" stop-opacity="0.6" />
  </radialGradient>
  <rect width="800" height="800" fill="url(#vignette)" />
</svg>
